<svg xmlns="http://www.w3.org/2000/svg" width="1600" height="1600" viewBox="0 0 1600 1600"><path d="M1428.698 807.59c-110.967 304.878-448.075 462.074-752.954 351.107-304.879-110.966-462.075-448.075-351.108-752.954C435.603 100.866 772.711-56.33 1077.59 54.636c304.878 110.966 462.074 448.075 351.108 752.953z" fill="none" stroke="#eac624" stroke-width=".62375" stroke-miterlimit="10"/><path d="M1360.457 782.752c-97.249 267.19-392.685 404.954-659.875 307.705-267.19-97.249-404.954-392.685-307.705-659.875 97.248-267.19 392.685-404.955 659.875-307.705 267.19 97.249 404.953 392.685 307.705 659.875z" fill="none" stroke="#eac624" stroke-width="1.77" stroke-miterlimit="10"/><path d="M1292.216 757.914c-83.531 229.501-337.295 347.834-566.796 264.301-229.503-83.53-347.834-337.295-264.303-566.796 83.532-229.501 337.295-347.834 566.798-264.301 229.501 83.531 347.832 337.295 264.301 566.796z" fill="none" stroke="#eac624" stroke-width="2.9162500000000002" stroke-miterlimit="10"/><path d="M1223.975 733.077c-69.813 191.813-281.905 290.712-473.718 220.898-191.813-69.815-290.713-281.905-220.9-473.718 69.816-191.814 281.907-290.713 473.72-220.9 191.813 69.816 290.712 281.906 220.898 473.72z" fill="none" stroke="#eac624" stroke-width="4.06125" stroke-miterlimit="10"/><path d="M1155.735 708.239c-56.098 154.125-226.515 233.592-380.64 177.495C620.97 829.638 541.502 659.219 597.6 505.094c56.096-154.125 226.515-233.593 380.64-177.495 154.125 56.096 233.592 226.515 177.495 380.64z" fill="none" stroke="#eac624" stroke-width="5.2075000000000005" stroke-miterlimit="10"/><path d="M1087.494 683.401c-42.38 116.437-171.125 176.472-287.561 134.093C683.495 775.114 623.46 646.369 665.84 529.93c42.379-116.436 171.125-176.47 287.561-134.09 116.437 42.378 176.473 171.124 134.093 287.56z" fill="none" stroke="#eac624" stroke-width="6.35375" stroke-miterlimit="10"/><path d="M1019.253 658.564c-28.663 78.749-115.735 119.351-194.484 90.689-78.747-28.662-119.351-115.735-90.689-194.483 28.663-78.749 115.735-119.351 194.484-90.69 78.748 28.663 119.351 115.735 90.689 194.484z" fill="none" stroke="#eac624" stroke-width="7.5" stroke-miterlimit="10"/><g><path d="M1315.364 1204.256c-110.966 304.879-448.075 462.075-752.953 351.108-304.88-110.967-462.075-448.075-351.108-752.954 110.966-304.878 448.075-462.074 752.954-351.108 304.877 110.967 462.074 448.075 351.107 752.954z" fill="none" stroke="#eac624" stroke-width=".62375" stroke-miterlimit="10"/><path d="M1247.123 1179.419c-97.248 267.19-392.685 404.953-659.875 307.705-267.19-97.25-404.953-392.685-307.705-659.875 97.25-267.19 392.685-404.955 659.875-307.705 267.19 97.248 404.954 392.685 307.705 659.875z" fill="none" stroke="#eac624" stroke-width="1.77" stroke-miterlimit="10"/><path d="M1178.883 1154.58c-83.531 229.502-337.295 347.835-566.796 264.302-229.503-83.531-347.834-337.295-264.303-566.796 83.531-229.501 337.295-347.834 566.798-264.301 229.5 83.53 347.832 337.295 264.3 566.796z" fill="none" stroke="#eac624" stroke-width="2.9162500000000002" stroke-miterlimit="10"/><path d="M1110.642 1129.743c-69.814 191.814-281.905 290.713-473.719 220.899-191.812-69.815-290.712-281.905-220.898-473.719C485.84 685.11 697.93 586.211 889.743 656.024c191.814 69.815 290.713 281.905 220.9 473.72z" fill="none" stroke="#eac624" stroke-width="4.06125" stroke-miterlimit="10"/><path d="M1042.401 1104.906c-56.097 154.125-226.515 233.592-380.64 177.495-154.125-56.097-233.592-226.515-177.495-380.64 56.097-154.125 226.515-233.593 380.64-177.495 154.125 56.096 233.593 226.515 177.495 380.64z" fill="none" stroke="#eac624" stroke-width="5.2075000000000005" stroke-miterlimit="10"/><path d="M974.16 1080.068c-42.38 116.436-171.124 176.471-287.56 134.093-116.438-42.38-176.473-171.125-134.093-287.563 42.379-116.436 171.125-176.471 287.561-134.091 116.436 42.379 176.473 171.125 134.093 287.561z" fill="none" stroke="#eac624" stroke-width="6.35375" stroke-miterlimit="10"/><path d="M905.92 1055.23c-28.663 78.75-115.735 119.352-194.484 90.69-78.748-28.662-119.351-115.736-90.689-194.483 28.663-78.75 115.735-119.352 194.484-90.69 78.747 28.662 119.351 115.735 90.689 194.483z" fill="none" stroke="#eac624" stroke-width="7.5" stroke-miterlimit="10"/></g></svg>